# xmcd
#
# Track frame offsets:
#	150
#	18027
#	35425
#	56278
#	72548
#	87328
#	103501
#	121768
#	136996
#	153257
#	173436
#	186861
#	200031
#	217242
#	226729
#	240572
#
# Disc length: 3410 seconds
#
# Revision: 1
# Processed by: cddbd v1.5.2PL0 Copyright (c) Steve Scherf et al.
# Submitted via: audiograbber 1.83.01
#
DISCID=cf0d5010
DTITLE=Nashville Singers - 16 Great Country Gospel Favorites
DYEAR=1994
DGENRE=Country
TTITLE0=Josh Turner - Long Black Train
TTITLE1=Jessi Alexander - Jon Mabe  - The Climb
TTITLE2=Vince Gill - Go Rest High On That Mountain
TTITLE3=Jim Collins - Troy Verges  - God Must Really Love Me
TTITLE4=Doug Johnson - Kim Williams  - Three Wooden Crosses
TTITLE5=Robert LeClair - Bill Nash - Kimberlee Nash  - In God We Still Trust
TTITLE6=Rutherford Melvern - George Teren  - When I Get Where I'm Going
TTITLE7=Rodney Clawson - Monty Criswell - Wade Kirby  - I Saw God Today
TTITLE8=Jimmy Fortune - I Believe
TTITLE9=Mark Narmore - Bobby Tomberline - Josh Turner  - The Way He Was Raised
TTITLE10=Tim Johnson - David Kent  - Up To Him
TTITLE11=Kris Kristofferson - Why Me, Lord?
TTITLE12=Monty Criswell - Rick Huckabay  - Muddy Water
TTITLE13=Traditional - I Saw The Light
TTITLE14=Dolly Parton - Hello God
TTITLE15=James Hicks - Dany Mayo  - Jesus And Mama Always Loved Me
EXTD=
EXTT0=
EXTT1=
EXTT2=
EXTT3=
EXTT4=
EXTT5=
EXTT6=
EXTT7=
EXTT8=
EXTT9=
EXTT10=
EXTT11=
EXTT12=
EXTT13=
EXTT14=
EXTT15=
PLAYORDER=
